<?xml version="1.0" encoding="UTF-8" standalone="no"?>
<svg
   width="456"
   height="456"
   viewBox="0 0 456 456"
   version="1.1"
   xml:space="preserve"
   style="fill-rule:evenodd;clip-rule:evenodd;stroke-linejoin:round;stroke-miterlimit:2;"
   id="svg4"
   sodipodi:docname="splash.svg"
   inkscape:version="1.3 (0e150ed6c4, 2023-07-21)"
   xmlns:inkscape="http://www.inkscape.org/namespaces/inkscape"
   xmlns:sodipodi="http://sodipodi.sourceforge.net/DTD/sodipodi-0.dtd"
   xmlns="http://www.w3.org/2000/svg"
   xmlns:svg="http://www.w3.org/2000/svg"><defs
   id="defs4" /><sodipodi:namedview
   id="namedview4"
   pagecolor="#ffffff"
   bordercolor="#000000"
   borderopacity="0.25"
   inkscape:showpageshadow="2"
   inkscape:pageopacity="0.0"
   inkscape:pagecheckerboard="0"
   inkscape:deskcolor="#d1d1d1"
   inkscape:zoom="1.6669732"
   inkscape:cx="210.86122"
   inkscape:cy="215.06044"
   inkscape:window-width="2400"
   inkscape:window-height="1271"
   inkscape:window-x="-9"
   inkscape:window-y="-9"
   inkscape:window-maximized="1"
   inkscape:current-layer="svg4" />&#10;    <path
   d="m 105.50037,281.60863 c -2.70293,0 -5.00091,-0.90042 -6.893127,-2.70209 -1.892214,-1.84778 -2.837901,-4.04181 -2.837901,-6.58209 0,-2.58722 0.945687,-4.80389 2.837901,-6.65167 1.892217,-1.84778 4.190197,-2.77167 6.893127,-2.77167 2.74819,0 5.06798,0.92389 6.96019,2.77167 1.93749,1.84778 2.90581,4.06445 2.90581,6.65167 0,2.54028 -0.96832,4.73431 -2.90581,6.58209 -1.89221,1.80167 -4.212,2.70209 -6.96019,2.70209 z"
   style="fill:#ffffff;fill-rule:nonzero;stroke-width:0.838376"
   id="path1" />&#10;    <path
   d="M 213.56111,280.08446 H 195.99044 L 149.69953,207.0544 c -1.17121,-1.84778 -2.14037,-3.76515 -2.90581,-5.75126 h -0.40578 c 0.36051,2.12528 0.54076,6.67515 0.54076,13.6496 v 65.13172 h -15.54349 v -99.36009 h 18.71925 l 44.7374,71.29798 c 1.89222,2.95695 3.1087,4.98917 3.64945,6.09751 h 0.26996 c -0.45021,-2.6325 -0.67573,-7.09015 -0.67573,-13.37293 v -64.02256 h 15.47557 z"
   style="fill:#ffffff;fill-rule:nonzero;stroke-width:0.838376"
   id="path2" />&#10;    <path
   d="m 289.25134,280.08446 h -54.40052 v -99.36009 h 52.23835 v 13.99669 h -36.15411 v 28.13085 h 33.31621 v 13.9271 h -33.31621 v 29.37835 h 38.31628 z"
   style="fill:#ffffff;fill-rule:nonzero;stroke-width:0.838376"
   id="path3" />&#10;    <path
   d="M 366.56466,194.72106 H 338.7222 v 85.3634 h -16.08423 v -85.3634 h -27.77455 v -13.99669 h 71.70124 z"
   style="fill:#ffffff;fill-rule:nonzero;stroke-width:0.838376"
   id="path4" />&#10;<rect
   style="fill:none;stroke:#3200c5;stroke-width:3.2126;stroke-linecap:round;stroke-linejoin:round"
   id="rect4"
   width="202.76271"
   height="255.55299"
   x="29.394594"
   y="64.188194"
   ry="0.70880359" /><ellipse
   style="fill:none;stroke:#3200c5;stroke-width:3.2126;stroke-linecap:round;stroke-linejoin:round"
   id="path5"
   cx="269.95035"
   cy="295.74561"
   rx="142.17384"
   ry="131.37584" /><path
   sodipodi:type="star"
   style="fill:none;stroke:#3200c5;stroke-width:3.2126;stroke-linecap:round;stroke-linejoin:round"
   id="path6"
   inkscape:flatsided="true"
   sodipodi:sides="3"
   sodipodi:cx="251.35378"
   sodipodi:cy="26.395145"
   sodipodi:r1="146.44804"
   sodipodi:r2="73.224022"
   sodipodi:arg1="0.8230615"
   sodipodi:arg2="1.8702591"
   inkscape:rounded="0"
   inkscape:randomized="0"
   d="M 350.93546,133.77539 108.56891,58.945289 294.55696,-113.53525 Z"
   inkscape:transform-center-x="21.601591"
   inkscape:transform-center-y="-16.275072"
   transform="translate(39.592718,151.77208)" /></svg>
